<?xml version="1.0" encoding="utf-8" ?><svg xmlns="http://www.w3.org/2000/svg" xmlns:xlink="http://www.w3.org/1999/xlink" width="1024" height="1024" viewBox="0 0 1024 1024"><path fill="white" transform="scale(2 2)" d="M302.877 48.6538C339.979 45.4184 362.327 103.19 383.69 109.936C392.239 107.432 395.058 94.3016 402.322 94.0333C415.341 93.5526 400.033 120.402 397.83 123.972C388.033 139.854 375.974 136.261 362.732 129.004C349.581 121.796 336.2 112.831 320.761 111.928C316.325 119.746 314.764 122.117 307.648 127.483C308.569 134.883 308.362 136.39 304.558 142.578C307.213 148.391 309.721 152.191 312.075 158.645C319.635 179.366 323.425 200.657 330.695 221.453C340.906 227.447 362.312 234.618 373.464 238.251L388.04 243.083C392.943 244.677 397.414 245.232 400.862 249.349C404.984 254.269 403.362 262.567 398.098 265.838C385.234 273.831 368.922 278.217 354.484 282.288C351.945 282.993 349.302 283.544 346.879 284.563L346.509 284.722C349.426 290.47 364.858 305.436 346.509 302.362C347.991 307.219 352.143 313.201 355.13 317.368C365.521 331.768 374.945 348.411 374.27 366.763C373.526 386.967 367.364 383.273 358.142 371.889C356.315 388.41 352.195 397.221 340.904 410.302C330.637 422.196 326.318 420.221 326.086 405.928C319.218 414.267 316.987 420.456 307.648 428.546C303.22 432.428 277.341 454.816 277.26 438.635C255.982 466.415 248.694 461.614 227.983 437.861C228.095 439.092 228.029 440.083 227.983 441.311C222.986 447.251 218.175 442.341 212.857 439.169C198.841 430.811 187.804 419.993 179.715 405.928C178.85 412.188 176.583 423.204 168.531 414.736C158.84 404.544 147.786 386.16 147.729 371.889C142.906 374.306 133.517 387.972 131.844 371.315C128.664 339.657 145.704 328.324 158.517 303.289C143.741 303.816 155.685 291.923 158.517 284.722C147.977 282.204 103.992 268.341 102.553 255.028C101.402 244.381 118.796 243.391 125.524 241.458C134.805 238.791 167.991 225.957 173.634 220.033C178.965 214.437 180.854 202.776 182.984 195.598C198.311 143.925 201.808 131.319 246.942 99.0343C253.47 94.3647 260.164 90.0737 265.844 84.3365C277.593 72.4686 276.385 51.6606 302.877 48.6538ZM197.048 262.664C190.078 263.647 179.63 265.058 172.723 265.24C171.468 274.479 169.801 281.324 166.534 290.069C174.841 290.757 173.091 295.636 170.443 301.264C160.825 321.707 140.795 341.765 141.25 363.455C145.358 360.732 149.7 356.153 153.677 354.697C161.596 356.567 157.729 361.58 157.373 367.509C156.593 380.481 162.825 391.21 170.208 401.544C172.002 391.307 178.147 373.564 184.632 393.541C190.435 408.606 202.78 423.511 217.587 430.467C215.452 426.92 207.62 408.821 213.371 405.941C219.871 402.685 222.363 413.576 224.944 417.23C230.152 425.173 235.758 432.796 242.405 439.587C244.086 436.517 247.537 433.33 249.782 430.509C272.051 402.532 283.769 365.809 283.635 330.378C272.29 327.399 261.072 319.388 252.62 311.457C208.81 354.101 147.67 325.469 178.088 318.115C188.12 315.689 193.874 311.705 199.586 303.289C194.413 298.396 183.328 279.664 181.856 273.024C184.235 266.712 189.209 267.134 192.028 273.961C195.278 281.834 200.559 289.374 206.642 295.301C216.558 284.223 221.942 284.751 234.184 280.427C235.44 279.983 238.208 277.989 239.955 277.237C245.183 283.766 255.888 287.024 262.695 280.837C267.264 276.684 269.938 275.997 273.896 281.125C283.7 283.042 293.605 288.032 299.693 296.145C309.69 286.755 312.776 277.768 312.038 264.197C310.993 264.167 309.938 264.104 308.899 264.197C290.034 290.826 275.689 272.108 260.802 257.481C255.268 257.483 249.471 257.574 243.959 257.481C237.923 279.327 208.069 282.382 197.271 263.072L197.048 262.664ZM148.48 254.926C153.069 253.378 159.166 250.142 164.183 248.391C177.817 243.634 188.941 241.939 197.856 229.183C200.221 225.8 210.023 204.822 209.564 202.26C203.963 203.469 195.552 204.096 190.511 205.868L190.285 206.316C186.543 213.835 185.782 223.965 177.759 229.005C166.103 236.328 141.474 247.699 127.617 250.7C135.133 252.857 141.521 253.202 148.48 254.926ZM193.363 194.945C198.48 194.299 209.712 192.129 214.555 192.613C215.208 192.108 217.603 184.208 217.905 183.02L217.587 182.671C211.069 183.33 203.39 183.996 197.048 185.508C195.114 188.903 194.536 191.262 193.363 194.945ZM220.63 172.008C230.009 146.516 236.676 138.079 257.166 119.239C271.8 105.784 286.594 92.2246 302.493 80.2872C322.485 65.4616 340.856 91.5146 354.53 103.46C357.866 106.375 372.975 118.702 376.463 117.796C355.116 104.943 329.13 51.8266 301.231 58.9141C282.86 63.5812 283.587 77.3384 274.737 88.3293C269.261 95.1302 261.522 99.8253 254.557 104.928C222.132 128.682 211.214 137.406 199.586 174.989C204.28 174.408 216.822 173.159 220.63 172.008ZM214.555 264.197C220.911 266.656 229.553 264.949 232.647 258.344C231.651 258.338 229.919 258.272 228.984 258.344C223.127 259.062 215.22 259.747 209.564 260.661C211.06 263.19 211.783 263.327 214.555 264.197ZM295.99 264.197C296.775 263.734 297.685 263.246 298.366 262.664C291.991 260.481 282.647 259.439 275.597 258.344C280.396 265.065 288.212 269.907 295.99 264.197ZM237.884 290.069C217.457 290.815 212.072 305.78 200.113 317.354C196.98 320.385 193.793 322.174 190.511 324.796C209.947 324.801 225.107 322.243 241 309.279C245.449 305.65 247.105 302.183 252.62 300.382C258.124 302.011 259.74 305.408 264.158 309.008C279.038 320.243 295.947 326.602 314.852 324.796C293.753 313.052 295.213 292.301 267.46 290.069C249.826 300.935 241.319 288.882 237.884 290.069Z"/><path fill="white" transform="scale(2 2)" d="M220.63 172.008C230.009 146.516 236.676 138.079 257.166 119.239C271.8 105.784 286.594 92.2246 302.493 80.2872C322.485 65.4616 340.856 91.5146 354.53 103.46C357.866 106.375 372.975 118.702 376.463 117.796C382.1 119.886 384.645 120.331 390.339 117.796C386.966 122.448 382.476 127.741 376.033 124.78C358.552 116.748 344.711 105.755 324.975 102.99C326.013 98.9444 326.826 94.9029 327.832 90.9008C325.568 85.593 319.563 84.8114 317.937 90.6014C315.039 100.921 312.16 112.395 302.877 118.918C299.698 115.804 289.573 105.52 284.746 110.42C277.378 117.9 302.863 123.047 297.956 135.819C296.941 136.535 271.137 128.41 280.07 141.806C283.306 143.562 290.975 143.941 295.99 146.189C301.513 159.347 307.647 170.903 310.124 185.508C303.429 181.663 281.224 174.354 275.964 175.881C273.82 176.503 273.183 178.394 272.599 180.299C274.569 187.224 280.068 185.643 286.672 187.419C293.937 189.373 306.693 192.922 313.044 196.758C314.815 200.53 317.658 211.324 318.935 215.802C316.508 214.597 302.136 205.992 304.064 217.947C304.513 220.731 314.018 223.639 316.32 225.048C337.639 235.671 360.674 245.349 383.69 251.655C344.79 261.515 323.488 255.364 284.717 250.264C256.273 246.522 228.64 248.446 200.304 252.267C183.341 254.555 165.606 257.376 148.48 254.926C153.069 253.378 159.166 250.142 164.183 248.391C177.817 243.634 188.941 241.939 197.856 229.183C200.221 225.8 210.023 204.822 209.564 202.26C219.263 202.711 220.483 195.287 214.555 192.613C215.208 192.108 217.603 184.208 217.905 183.02L217.587 182.671C223.903 179.653 249.568 183.143 258.906 182.604C262.994 182.367 264.885 177.331 261.994 174.349C258.731 170.984 227.425 172.335 220.63 172.008Z"/><path fill="white" transform="scale(2 2)" d="M246.93 323.694C251.63 323.494 252.481 325.574 258.417 323.694C263.53 325.53 264.608 330.29 259.3 333.047C247.874 337.857 236.837 327.564 246.93 323.694Z"/><path fill="white" transform="scale(2 2)" d="M320.761 265.24C324.165 265.167 328.397 265.633 331.825 266.034C333.216 274.015 334.799 282.117 338.781 289.275C339.872 291.237 336.943 289.462 335.242 290.639C327.353 296.097 349.418 325.369 352.963 331.012C359.442 341.329 363.914 352.559 365.053 364.767C361.939 361.91 352.758 351.909 348.364 356.58C345.111 360.037 353.642 382.342 334.892 402.295C333.74 397.199 329.839 375.973 321.669 386.696C321.006 387.567 318.457 397.367 317.461 399.551C311.8 411.959 301.075 422.835 289.812 430.467C290.734 425.011 296.874 399.781 284.423 406.984C282 408.386 269.84 442.382 252.62 448.132C249.146 445.754 245.274 442.68 242.405 439.587C244.086 436.517 247.537 433.33 249.782 430.509C272.051 402.532 283.769 365.809 283.635 330.378C297.215 334.631 310.473 335.998 324.623 332.733C328.612 331.812 344.588 327.733 334.294 321.239C332.878 320.345 328.68 319.961 327.005 319.122C317.743 316.015 310.954 311.533 305.595 303.289C319.071 290.188 321.037 283.753 320.761 265.24Z"/></svg>